<?xml version="1.0" encoding="utf-8"?><svg xmlns="http://www.w3.org/2000/svg" xmlns:xlink="http://www.w3.org/1999/xlink"><symbol viewBox="0 0 24 24" id="arrow-down" xmlns="http://www.w3.org/2000/svg"><path d="M12 19V5M17.001 13.999L12 19l-5.001-5.001" stroke-width="1.5" stroke-linecap="round" stroke-linejoin="round"/></symbol><symbol viewBox="0 0 24 24" id="arrow-down-2" xmlns="http://www.w3.org/2000/svg"><path d="M8 10l4 4 4-4" stroke-width="1.5" stroke-linecap="round" stroke-linejoin="round"/></symbol><symbol viewBox="0 0 24 24" id="arrow-left" xmlns="http://www.w3.org/2000/svg"><path d="M5 12h14M10 7l-5 5M10 17l-5-5" stroke-width="1.5" stroke-linecap="round" stroke-linejoin="round"/></symbol><symbol viewBox="0 0 24 24" id="arrow-left-2" xmlns="http://www.w3.org/2000/svg"><path d="M14 8l-4 4 4 4" stroke-width="1.5" stroke-linecap="round" stroke-linejoin="round"/></symbol><symbol viewBox="0 0 24 24" id="arrow-right" xmlns="http://www.w3.org/2000/svg"><path d="M19 12H5M14 17l5-5M14 7l5 5" stroke-width="1.5" stroke-linecap="round" stroke-linejoin="round"/></symbol><symbol viewBox="0 0 24 24" id="arrow-right-2" xmlns="http://www.w3.org/2000/svg"><path d="M10 16l4-4-4-4" stroke-width="1.5" stroke-linecap="round" stroke-linejoin="round"/></symbol><symbol viewBox="0 0 24 24" id="arrow-right-circle" xmlns="http://www.w3.org/2000/svg"><path clip-rule="evenodd" d="M12 21v0a9 9 0 01-9-9v0a9 9 0 019-9v0a9 9 0 019 9v0a9 9 0 01-9 9z" stroke-width="1.5" stroke-linecap="round" stroke-linejoin="round"/><path d="M16 12H8M13 9l3 3-3 3" stroke-width="1.5" stroke-linecap="round" stroke-linejoin="round"/></symbol><symbol viewBox="0 0 24 24" id="arrow-up" xmlns="http://www.w3.org/2000/svg"><path d="M12 5v14M6.999 10L12 4.999 17.001 10" stroke-width="1.5" stroke-linecap="round" stroke-linejoin="round"/></symbol><symbol viewBox="0 0 24 24" id="arrow-up-2" xmlns="http://www.w3.org/2000/svg"><path d="M16 14l-4-4-4 4" stroke-width="1.5" stroke-linecap="round" stroke-linejoin="round"/></symbol><symbol viewBox="0 0 24 24" id="bookmark" xmlns="http://www.w3.org/2000/svg"><path clip-rule="evenodd" d="M7.7 3h8.6a2 2 0 012 2v16l-6.292-3.273L5.7 21V5a2 2 0 012-2z" stroke-width="1.5" stroke-linecap="round" stroke-linejoin="round"/></symbol><symbol viewBox="0 0 24 24" id="check" xmlns="http://www.w3.org/2000/svg"><path d="M20 6.5l-11 11-5-5" stroke-width="1.5" stroke-linecap="round" stroke-linejoin="round"/></symbol><symbol viewBox="0 0 24 24" id="checkbox" xmlns="http://www.w3.org/2000/svg"><path d="M16 10l-5 5-3-3" stroke-width="1.5" stroke-linecap="round" stroke-linejoin="round"/><path clip-rule="evenodd" d="M18 20H6a2 2 0 01-2-2V6a2 2 0 012-2h12a2 2 0 012 2v12a2 2 0 01-2 2z" stroke-width="1.5" stroke-linecap="round" stroke-linejoin="round"/></symbol><symbol viewBox="0 0 24 24" id="close" xmlns="http://www.w3.org/2000/svg"><path d="M8 8l8 8M16 8l-8 8" stroke-width="1.5" stroke-linecap="round" stroke-linejoin="round"/></symbol><symbol viewBox="0 0 24 24" id="close-circle" xmlns="http://www.w3.org/2000/svg"><path d="M14.83 9.17l-5.66 5.66M14.83 14.83L9.17 9.17" stroke-width="1.5" stroke-linecap="round" stroke-linejoin="round"/><path clip-rule="evenodd" d="M12 21v0a9 9 0 01-9-9v0a9 9 0 019-9v0a9 9 0 019 9v0a9 9 0 01-9 9z" stroke-width="1.5" stroke-linecap="round" stroke-linejoin="round"/></symbol><symbol viewBox="0 0 24 24" id="download" xmlns="http://www.w3.org/2000/svg"><path d="M12 17V3M20 21H4M17 12l-5.001 5.001-5-5.001" stroke-width="1.5" stroke-linecap="round" stroke-linejoin="round"/></symbol><symbol viewBox="0 0 24 24" id="exit" xmlns="http://www.w3.org/2000/svg"><path d="M8 5H6a2 2 0 00-2 2v10a2 2 0 002 2h2" stroke-width="1.5" stroke-linecap="round" stroke-linejoin="round"/><path clip-rule="evenodd" d="M13.431 20.952l5-1.104A2 2 0 0020 17.895V6.105a2 2 0 00-1.569-1.953l-5-1.104A2 2 0 0011 5.001V19a2 2 0 002.431 1.952v0z" stroke-width="1.5" stroke-linecap="round" stroke-linejoin="round"/><path d="M14 11v2" stroke-width="1.5" stroke-linecap="round" stroke-linejoin="round"/></symbol><symbol viewBox="0 0 24 24" id="eye" xmlns="http://www.w3.org/2000/svg"><path d="M3 13c1-3.314 4.03-6 9-6s8 2.686 9 6" stroke-width="1.5" stroke-linecap="round" stroke-linejoin="round"/><path d="M14.121 11.879A3 3 0 119.88 16.12a3 3 0 014.242-4.242" stroke-width="1.5" stroke-linecap="round" stroke-linejoin="round"/></symbol><symbol viewBox="0 0 24 24" id="headphone" xmlns="http://www.w3.org/2000/svg"><path d="M15.531 14.276h-.813a.587.587 0 00-.526.325l-.751 1.502a.294.294 0 01-.526 0l-1.837-3.675a.294.294 0 00-.522-.008l-.836 1.547a.59.59 0 01-.518.309h-.733" stroke-width="1.5" stroke-linecap="round" stroke-linejoin="round"/><path d="M4.92 12H4a2 2 0 00-1.95 2.44l.676 3A2 2 0 004.678 19h1.196a.5.5 0 00.488-.61L5.07 12.669C4.067 8.226 7.445 4 12 4v0c4.555 0 7.933 4.226 6.93 8.669l-1.29 5.721a.5.5 0 00.486.61h1.196a2 2 0 001.951-1.56l.677-3A2 2 0 0020 12h-.919" stroke-width="1.5" stroke-linecap="round" stroke-linejoin="round"/></symbol><symbol viewBox="0 0 24 24" id="heart" xmlns="http://www.w3.org/2000/svg"><path clip-rule="evenodd" d="M15.7 4C18.87 4 21 6.98 21 9.76 21 15.39 12.16 20 12 20c-.16 0-9-4.61-9-10.24C3 6.98 5.13 4 8.3 4c1.82 0 3.01.91 3.7 1.71.69-.8 1.88-1.71 3.7-1.71z" stroke-width="1.5" stroke-linecap="round" stroke-linejoin="round"/></symbol><symbol viewBox="0 0 24 24" id="heart-off" xmlns="http://www.w3.org/2000/svg"><path d="M5.703 6.379C6.553 5.546 7.683 5 9.006 5c1.719 0 2.843.853 3.494 1.603C13.152 5.853 14.276 5 15.994 5 18.988 5 21 7.794 21 10.4c0 2.392-1.717 4.583-3.606 6.269M4.198 8.967A5.448 5.448 0 004 10.4c0 5.278 8.349 9.6 8.5 9.6.052 0 1.097-.528 2.429-1.426M21 20L3 4" stroke-width="1.5" stroke-linecap="round" stroke-linejoin="round"/></symbol><symbol viewBox="0 0 24 24" id="info" xmlns="http://www.w3.org/2000/svg"><path clip-rule="evenodd" d="M12 21v0a9 9 0 01-9-9v0a9 9 0 019-9v0a9 9 0 019 9v0a9 9 0 01-9 9z" stroke-width="1.5" stroke-linecap="round" stroke-linejoin="round"/><path d="M12 17v-5h-1M11.749 8a.25.25 0 10.002.5.25.25 0 00-.002-.5" stroke-width="1.5" stroke-linecap="round" stroke-linejoin="round"/></symbol><symbol viewBox="0 0 24 24" id="loading" xmlns="http://www.w3.org/2000/svg"><path d="M12 17.62V21M8.02 15.98l-2.38 2.38M6.38 12H3M5.64 5.64l2.38 2.38M12 6V3M16.77 7.23l1.59-1.59M21 12h-1.5M18.36 18.36l-.53-.53" stroke-width="1.5" stroke-linecap="round" stroke-linejoin="round"/></symbol><symbol viewBox="0 0 24 24" id="lock" xmlns="http://www.w3.org/2000/svg"><path d="M8 10V7v0a4 4 0 014-4v0a4 4 0 014 4v3M12 14v3" stroke-width="1.5" stroke-linecap="round" stroke-linejoin="round"/><path clip-rule="evenodd" d="M17 21H7a2 2 0 01-2-2v-7a2 2 0 012-2h10a2 2 0 012 2v7a2 2 0 01-2 2z" stroke-width="1.5" stroke-linecap="round" stroke-linejoin="round"/></symbol><symbol viewBox="0 0 24 24" id="mail" xmlns="http://www.w3.org/2000/svg"><path clip-rule="evenodd" d="M3 6.8v0c0 .6.3 1.1.8 1.5l6 4.1c1.4.9 3.1.9 4.5 0l6-4c.4-.5.7-1 .7-1.6v0c0-1-.8-1.8-1.8-1.8H4.8C3.8 5 3 5.8 3 6.8z" stroke-width="1.5" stroke-linecap="round" stroke-linejoin="round"/><path d="M3 7v10c0 1.1.9 2 2 2h14c1.1 0 2-.9 2-2V7M3.588 18.412l6.094-6.094M14.36 12.36l6.052 6.052" stroke-width="1.5" stroke-linecap="round" stroke-linejoin="round"/></symbol><symbol viewBox="0 0 24 24" id="map-pin" xmlns="http://www.w3.org/2000/svg"><path d="M3 11h1.5M21 11h-1.5M18.36 4.64L17.3 5.7M5.64 4.64L6.7 5.7M12 2v1.5" stroke-width="1.5" stroke-linecap="round" stroke-linejoin="round"/><path clip-rule="evenodd" d="M12 18s-4.083-3.354-4.083-6.417a4.083 4.083 0 118.166 0C16.083 14.646 12 18 12 18z" stroke-width="1.5" stroke-linecap="round" stroke-linejoin="round"/><path d="M11.999 11.408a.291.291 0 10.001.583.291.291 0 00-.001-.583M8 21h8" stroke-width="1.5" stroke-linecap="round" stroke-linejoin="round"/></symbol><symbol viewBox="0 0 33 32" id="menu" xmlns="http://www.w3.org/2000/svg"><g id="azInterface, Essential/menu-burger"><g id="azGroup" stroke-width="2" stroke-linecap="round" stroke-linejoin="round"><path id="azPath" d="M5.834 16h21"/><path id="azPath_2" d="M5.834 23.5h21"/><path id="azPath_3" d="M5.834 8.5h21"/></g></g></symbol><symbol viewBox="0 0 24 24" id="news" xmlns="http://www.w3.org/2000/svg"><path clip-rule="evenodd" d="M19 21v0a2 2 0 002-2v-6a1 1 0 00-1-1h-3v7a2 2 0 002 2z" stroke-width="1.5" stroke-linecap="round" stroke-linejoin="round"/><path d="M7 8h6M7 11.87h6M7 16.06h3M17 12V5a1 1 0 00-1-1H4a1 1 0 00-1 1v14a2 2 0 002 2h14" stroke-width="1.5" stroke-linecap="round" stroke-linejoin="round"/></symbol><symbol viewBox="0 0 20 20" id="ok" xmlns="http://www.w3.org/2000/svg"><path d="M9.393 13.16c-1.357-.142-2.58-.476-3.627-1.295-.13-.102-.265-.2-.383-.314-.459-.44-.505-.944-.142-1.464.31-.445.831-.564 1.373-.308.104.05.204.111.3.177 1.952 1.341 4.633 1.378 6.592.06.194-.148.402-.27.642-.331.468-.12.904.051 1.155.46.286.468.282.924-.07 1.286-.542.556-1.194.959-1.918 1.24-.684.265-1.434.398-2.176.487.112.122.164.182.234.252 1.008 1.013 2.02 2.02 3.025 3.036.342.346.413.775.225 1.178-.206.44-.667.73-1.12.698-.286-.02-.51-.162-.708-.362-.76-.765-1.535-1.516-2.28-2.296-.217-.227-.321-.184-.513.013-.765.788-1.542 1.563-2.324 2.334-.351.346-.77.409-1.176.21-.433-.209-.709-.65-.688-1.095.015-.3.163-.53.37-.736.996-.995 1.99-1.994 2.986-2.991.065-.066.127-.137.223-.24z"/><path d="M10.219 9.691c-2.42-.008-4.405-2.014-4.39-4.439.013-2.45 1.999-4.425 4.443-4.419 2.449.007 4.415 2.01 4.402 4.487-.012 2.419-2.01 4.38-4.455 4.371zm2.2-4.433a2.157 2.157 0 00-2.165-2.163 2.16 2.16 0 00-2.169 2.19 2.157 2.157 0 002.18 2.145 2.153 2.153 0 002.153-2.172z"/></symbol><symbol viewBox="0 0 24 24" id="phone" xmlns="http://www.w3.org/2000/svg"><path clip-rule="evenodd" d="M10.856 13.144a12.634 12.634 0 01-2.638-3.809.749.749 0 01.166-.827l.819-.818c.67-.671.67-1.62.085-2.206L8.114 4.31a2 2 0 00-2.828 0l-.652.652c-.741.741-1.05 1.81-.85 2.87.494 2.613 2.012 5.474 4.46 7.923 2.45 2.449 5.31 3.967 7.924 4.461 1.06.2 2.129-.109 2.87-.85l.65-.651a2 2 0 000-2.828l-1.172-1.173a1.5 1.5 0 00-2.121 0l-.903.904a.749.749 0 01-.827.166 12.66 12.66 0 01-3.81-2.64z" stroke-width="1.5" stroke-linecap="round" stroke-linejoin="round"/></symbol><symbol viewBox="0 0 24 24" id="question" xmlns="http://www.w3.org/2000/svg"><path clip-rule="evenodd" d="M3 11.291c0 2.683 1.42 5.045 3.599 6.534-.001.855.001 2.007.001 3.216l3.531-1.747a9.896 9.896 0 001.869.179c4.952 0 9-3.643 9-8.182 0-4.539-4.048-8.182-9-8.182s-9 3.643-9 8.182z" stroke-width="1.5" stroke-linecap="round" stroke-linejoin="round"/><path d="M11.899 12.328v-.207c0-.678.419-1.045.839-1.327.41-.276.821-.636.821-1.3a1.659 1.659 0 00-3.319-.001M11.898 14.667a.148.148 0 00-.15.15.15.15 0 10.15-.15" stroke-width="1.5" stroke-linecap="round" stroke-linejoin="round"/></symbol><symbol viewBox="0 0 24 24" id="search" xmlns="http://www.w3.org/2000/svg"><path d="M15.714 6.838a6.276 6.276 0 11-8.876 8.876 6.276 6.276 0 018.876-8.876M19 19l-3.29-3.29" stroke-width="1.5" stroke-linecap="round" stroke-linejoin="round"/></symbol><symbol viewBox="0 0 20 20" id="tg" xmlns="http://www.w3.org/2000/svg"><path d="M17.222 3.097L2.447 8.795c-1.009.405-1.003.967-.185 1.218l3.793 1.184 8.777-5.538c.415-.252.794-.117.482.16l-7.11 6.418h-.002.001l-.261 3.91c.383 0 .552-.175.767-.383l1.843-1.791 3.832 2.83c.707.39 1.214.19 1.39-.654L18.29 4.292c.258-1.032-.394-1.5-1.068-1.195z"/></symbol><symbol viewBox="0 0 24 24" id="translate" xmlns="http://www.w3.org/2000/svg"><path d="M14.001 21.004h5.002a2 2 0 002-2.001V15M10 2.996H4.996a2 2 0 00-2 2.001V10" stroke-width="1.5" stroke-linecap="round" stroke-linejoin="round"/><circle cx="17.002" cy="6.998" r="5.002" stroke-width="1.5" stroke-linecap="round" stroke-linejoin="round"/><path clip-rule="evenodd" d="M6.998 22.004v0a5.002 5.002 0 01-5.002-5.002v0A5.002 5.002 0 016.998 12v0A5.002 5.002 0 0112 17.002v0a5.002 5.002 0 01-5.002 5.002z" stroke-width="1.5" stroke-linecap="round" stroke-linejoin="round"/><path d="M5.461 17.832h3.084M8.799 18.553L7.502 14.95H6.494l-1.297 3.602M18.503 6.123h-1.5M17.002 4.955v1.168M15.502 6.123h1.5M18.359 8.624a2.99 2.99 0 01-1.357-2.501M17.002 6.123a2.99 2.99 0 01-1.356 2.5" stroke-width="1.5" stroke-linecap="round" stroke-linejoin="round"/></symbol><symbol viewBox="0 0 24 24" id="user" xmlns="http://www.w3.org/2000/svg"><path d="M18.364 5.636a9 9 0 010 12.728 9 9 0 110-12.728" stroke-width="1.5" stroke-linecap="round" stroke-linejoin="round"/><path d="M13.99 8.324a2.813 2.813 0 11-3.98 3.978 2.813 2.813 0 013.98-3.978M17.707 18.958A7.848 7.848 0 0012 16.5a7.845 7.845 0 00-5.707 2.459" stroke-width="1.5" stroke-linecap="round" stroke-linejoin="round"/></symbol><symbol viewBox="0 0 20 20" id="vk" xmlns="http://www.w3.org/2000/svg"><path fill-rule="evenodd" clip-rule="evenodd" d="M19.24 4.779c.134-.45 0-.779-.641-.779H16.48c-.539 0-.787.285-.922.6 0 0-1.077 2.626-2.604 4.332-.494.493-.718.65-.987.65-.135 0-.33-.157-.33-.605V4.779c0-.539-.156-.779-.605-.779h-3.33c-.337 0-.54.25-.54.487 0 .51.764.629.843 2.065v3.12c0 .684-.124.808-.393.808-.718 0-2.466-2.638-3.502-5.656C3.907 4.237 3.703 4 3.162 4h-2.12c-.605 0-.726.285-.726.6 0 .56.719 3.344 3.345 7.025 1.75 2.514 4.218 3.877 6.463 3.877 1.346 0 1.513-.303 1.513-.824v-1.9c0-.605.128-.726.554-.726.314 0 .853.157 2.11 1.37 1.437 1.436 1.674 2.08 2.482 2.08h2.119c.605 0 .908-.303.733-.9-.191-.595-.877-1.459-1.787-2.483-.494-.583-1.235-1.212-1.46-1.526-.314-.404-.224-.584 0-.943 0 0 2.582-3.637 2.852-4.871z"/></symbol><symbol viewBox="0 0 24 24" id="volume" xmlns="http://www.w3.org/2000/svg"><path clip-rule="evenodd" d="M5.875 8.625H3.5a1 1 0 00-1 1v4.75a1 1 0 001 1h2.375l3.979 3.371a1 1 0 001.646-.763V6.017c0-.852-.997-1.314-1.646-.763L5.875 8.625z" stroke-width="1.5" stroke-linecap="round" stroke-linejoin="round"/><path d="M15.537 15.978c1.162-.722 1.963-2.224 1.963-3.973 0-1.749-.8-3.252-1.963-3.983M18.505 19.065c1.808-1.555 2.995-4.135 2.995-7.062 0-2.931-1.189-5.513-3-7.067" stroke-width="1.5" stroke-linecap="round" stroke-linejoin="round"/></symbol><symbol viewBox="0 0 20 20" id="yt" xmlns="http://www.w3.org/2000/svg"><path d="M18.977 5.313a2.349 2.349 0 00-1.653-1.652c-1.467-.402-7.336-.402-7.336-.402s-5.869 0-7.336.387A2.397 2.397 0 00.999 5.313C.613 6.781.613 9.823.613 9.823s0 3.058.386 4.51a2.35 2.35 0 001.653 1.653c1.483.401 7.336.401 7.336.401s5.87 0 7.336-.386a2.35 2.35 0 001.653-1.653c.386-1.467.386-4.51.386-4.51s.016-3.057-.386-4.525zM8.119 12.634V7.012L13 9.823l-4.88 2.811z"/></symbol></svg>